<svg   version="1.1" xmlns="http://www.w3.org/2000/svg">
  <defs>
    <symbol id="burger" viewBox="0 0 32 32">
      <path d="M5.334 23.027v-1.333h21.333v1.333h-21.333zM5.334 16.667v-1.333h21.333v1.333h-21.333zM5.334 10.307v-1.333h21.333v1.333h-21.333z" fill="currentColor"></path>
    </symbol>

  <symbol id="close" viewBox="0 0 32 32">
<path stroke-linejoin="round" stroke-linecap="round" stroke-miterlimit="4" stroke-width="2" d="M24 8l-16 16M8 8l16 16"></path>
</symbol>

  <symbol id="line-arrow" viewBox="0 0 46 38">
    <path d="M43.8333 19L2.16667 19M43.8333 19L27.1667 35.6666M43.8333 19L27.1667 2.33331" stroke="currentColor" stroke-width="3" stroke-linecap="round" stroke-linejoin="round" />
  </symbol>

 <symbol id="arrow-dropdown" viewBox="0 0 32 32">
<path stroke-linejoin="miter" stroke-linecap="round" stroke-miterlimit="4" stroke-width="2" d="M29.714 24l-13.714-13.714-13.714 13.714"></path>
</symbol>
<symbol id="quote" viewBox="0 0 26 28">
<path d="M12 5v11c0 4.406-3.594 8-8 8h-1c-0.547 0-1-0.453-1-1v-2c0-0.547 0.453-1 1-1h1c2.203 0 4-1.797 4-4v-0.5c0-0.828-0.672-1.5-1.5-1.5h-3.5c-1.656 0-3-1.344-3-3v-6c0-1.656 1.344-3 3-3h6c1.656 0 3 1.344 3 3zM26 5v11c0 4.406-3.594 8-8 8h-1c-0.547 0-1-0.453-1-1v-2c0-0.547 0.453-1 1-1h1c2.203 0 4-1.797 4-4v-0.5c0-0.828-0.672-1.5-1.5-1.5h-3.5c-1.656 0-3-1.344-3-3v-6c0-1.656 1.344-3 3-3h6c1.656 0 3 1.344 3 3z"></path>
</symbol>

  <!-- Phone -->
<symbol id="phone" viewBox="0 0 32 32">
<path stroke-linejoin="round" stroke-linecap="round" stroke-miterlimit="4" d="M3 9c0 11.045 8.955 20 20 20h3c1.657 0 3-1.343 3-3v0-1.829c0-0.688-0.468-1.288-1.136-1.455l-5.897-1.475c-0.587-0.147-1.203 0.073-1.564 0.556l-1.293 1.724c-0.376 0.501-1.025 0.723-1.613 0.507-4.43-1.661-7.863-5.094-9.488-9.413l-0.036-0.111c-0.216-0.588 0.005-1.237 0.507-1.613l1.724-1.293c0.484-0.361 0.703-0.979 0.556-1.564l-1.475-5.897c-0.169-0.657-0.756-1.136-1.455-1.136h-1.829c-1.657 0-3 1.343-3 3v0 3z"></path>
</symbol>



  <!-- Location -->
  <symbol id="location" viewBox="0 0 24 24" stroke="currentColor" fill="none" stroke-linecap="round" stroke-linejoin="round">
    <path d="M21 10c0 6-9 13-9 13S3 16 3 10a9 9 0 0 1 18 0z" />
    <circle cx="12" cy="10" r="3" />
  </symbol>

  <!-- Email -->
  <symbol id="email" viewBox="0 0 24 24" stroke="currentColor" fill="none" stroke-linecap="round" stroke-linejoin="round">
    <path d="M4 4h16a2 2 0 0 1 2 2v12a2 2 0 0 1-2 2H4a2 2 0 0 1-2-2V6a2 2 0 0 1 2-2z" />
    <polyline points="22,6 12,13 2,6" />
  </symbol>

  <!-- Clock -->
  <symbol id="clock" viewBox="0 0 24 24" stroke="currentColor" fill="none" stroke-linecap="round" stroke-linejoin="round">
    <circle cx="12" cy="12" r="10" />
    <polyline points="12 6 12 12 16 14" />
  </symbol>

<symbol id="bend" viewBox="0 0 174 32" preserveAspectRatio="none">
<path d="M0 0v31.886c0 0 43.411-12.444 86.883-12.444s87.004 12.444 87.004 12.444v-31.886h-173.887z"></path>
</symbol>


   <symbol id="check-mark" viewBox="0 0 28 16">
    <path d="M1.5 2L14 14.5L26.5 2"  stroke-width="3" stroke-linecap="round" stroke-linejoin="round" />
  </symbol>
  </defs>
</svg>
